<?xml version="1.0" encoding="UTF-8"?>
<svg xmlns="http://www.w3.org/2000/svg" viewBox="0 0 512 512">
    <g>
        <path d="m267.48,213.07c16.11,2.26,26.97,18.43,23.95,34.89-3.44,18.67-6.79,37.36-10.09,56.06-2.26,12.76,3.95,24.93,15.38,30.47,11.48,5.57,25.17,2.86,33.69-7.03,12.34-14.32,6.86-37.08-9.36-43.36-6.96-2.69-14.61-3.59-21.96-5.25-1.73-.39-3.51-.58-5.61-.91,1.75-9.82,3.46-19.38,5.2-29.1,20.46,2.75,40.46,5.79,54.75,23.17,15.53,18.88,17.79,46.03,4.98,67.33-12.47,20.74-37.63,31.52-61.5,26.33-30.32-6.58-50.02-35.53-44.86-66.16,2.74-16.3,5.8-32.55,8.72-48.82,2.23-12.46,4.46-24.92,6.73-37.62h0Z" style="fill: #6d64aa;"/>
        <path d="m218.59,234.25c-1.74,9.74-3.44,19.2-5.17,28.85-.88-.04-1.64.02-2.37-.11-6.69-1.18-13.4-2.26-20.06-3.63-23.51-4.83-41.47-23.96-45.06-47.83-3.6-24.02,7.74-47.33,28.78-59.12,20.91-11.71,47.5-9.36,65.48,6.19,16.24,14.04,23.21,32.07,19.83,53.21-4.58,28.71-10.12,57.28-15.24,85.9-.06.33-.17.64-.37,1.32-7.98-1.41-14.24-5.49-18.84-11.99-5.03-7.1-6.4-15.01-4.81-23.6,2.72-14.68,5.2-29.41,7.79-44.12.68-3.89,1.35-7.79,2.11-11.67,1.76-9.01-.87-16.89-6.69-23.61-7.79-9.01-21.88-11.68-33.04-6.71-10.61,4.73-17.15,16.61-15.81,28.73,1.34,12.08,10.23,21.92,22.29,24.38,6.88,1.4,13.81,2.49,21.17,3.8h0Z" style="fill: #006a5d;"/>
    </g>
</svg>